<svg id="visual" viewBox="0 0 675 900" width="675" height="900" xmlns="http://www.w3.org/2000/svg" xmlns:xlink="http://www.w3.org/1999/xlink" version="1.1"><rect x="0" y="0" width="675" height="900" fill="#ffffff"></rect><g transform="translate(348.140689639352 420.1224128837858)"><path d="M129.2 -217.7C162.2 -204.9 179.8 -159.4 216.6 -117.7C253.3 -76 309.2 -38 321.6 7.2C334 52.3 303 104.7 268 149.6C233.1 194.4 194.3 231.9 149 247.1C103.7 262.2 51.8 255.1 -4.5 262.9C-60.8 270.7 -121.7 293.4 -159.2 273.7C-196.7 254.1 -210.9 192 -250.8 139.3C-290.7 86.7 -356.3 43.3 -344.2 7C-332.1 -29.3 -242.2 -58.7 -185.1 -81.5C-128 -104.3 -103.5 -120.7 -78.1 -137.8C-52.7 -155 -26.4 -173 10.9 -191.9C48.2 -210.8 96.3 -230.5 129.2 -217.7" fill="#FF0066"></path></g></svg>